<svg width="40" height="40" viewBox="0 0 40 40" fill="none" xmlns="http://www.w3.org/2000/svg">
<path d="M17.8495 21.828L4.50205 12.4848C3.76956 11.972 3.33331 11.1342 3.33331 10.24C3.33331 8.72676 4.56007 7.5 6.07336 7.5H33.9266C35.4399 7.5 36.6666 8.72676 36.6666 10.24C36.6666 11.1342 36.2304 11.972 35.4979 12.4848L22.1505 21.828C20.8593 22.7318 19.1407 22.7318 17.8495 21.828Z" fill="#748FFC"/>
<path d="M35.8333 30L24.7619 20M15.2381 20L4.1667 30M3.33331 11.6667L16.9415 21.1924C18.0435 21.9638 18.5944 22.3495 19.1938 22.4988C19.7231 22.6308 20.2768 22.6308 20.8062 22.4988C21.4055 22.3495 21.9565 21.9638 23.0584 21.1924L36.6666 11.6667M11.3333 33.3333H28.6666C31.4669 33.3333 32.867 33.3333 33.9366 32.7884C34.8774 32.309 35.6423 31.5441 36.1217 30.6033C36.6666 29.5337 36.6666 28.1336 36.6666 25.3333V14.6667C36.6666 11.8664 36.6666 10.4663 36.1217 9.39671C35.6423 8.4559 34.8774 7.691 33.9366 7.21163C32.867 6.66666 31.4669 6.66666 28.6666 6.66666H11.3333C8.53305 6.66666 7.13292 6.66666 6.06336 7.21163C5.12255 7.691 4.35765 8.4559 3.87828 9.39671C3.33331 10.4663 3.33331 11.8664 3.33331 14.6667V25.3333C3.33331 28.1336 3.33331 29.5337 3.87828 30.6033C4.35765 31.5441 5.12255 32.309 6.06336 32.7884C7.13292 33.3333 8.53305 33.3333 11.3333 33.3333Z" stroke="#3B5BDB" stroke-width="3.75" stroke-linecap="round" stroke-linejoin="round"/>
</svg>
