<svg width="24" height="24" viewBox="0 0 24 24" fill="none" xmlns="http://www.w3.org/2000/svg">
<path d="M9.99999 3.201C8.4357 3.56364 6.99691 4.3382 5.83287 5.44434C4.66883 6.55047 3.82194 7.9479 3.38002 9.49168C2.93811 11.0355 2.91728 12.6693 3.31968 14.2239C3.72209 15.7784 4.53308 17.197 5.66854 18.3325C6.804 19.4679 8.22257 20.2789 9.77711 20.6813C11.3316 21.0837 12.9655 21.0629 14.5093 20.621C16.0531 20.1791 17.4505 19.3322 18.5567 18.1681C19.6628 17.0041 20.4374 15.5653 20.8 14.001C20.8 13.7358 20.6946 13.4814 20.5071 13.2939C20.3196 13.1064 20.0652 13.001 19.8 13.001H16C15.8182 13.7 15.455 14.3386 14.9471 14.8521C14.4392 15.3656 13.8047 15.7359 13.1077 15.9254C12.4108 16.1149 11.6761 16.1169 10.9781 15.9312C10.2801 15.7456 9.64358 15.3788 9.13286 14.8681C8.62215 14.3574 8.25541 13.7209 8.06976 13.0229C7.88411 12.3249 7.88614 11.5902 8.07563 10.8933C8.26513 10.1963 8.63537 9.5618 9.1489 9.05391C9.66242 8.54602 10.301 8.1828 11 8.001V4.001C10.9878 3.88242 10.9522 3.76745 10.8951 3.66279C10.8381 3.55814 10.7607 3.46589 10.6677 3.39142C10.5746 3.31696 10.4676 3.26177 10.353 3.22908C10.2383 3.19638 10.1183 3.18684 9.99999 3.201Z" stroke="#868E96" stroke-width="2" stroke-linecap="round" stroke-linejoin="round"/>
<path d="M15 3.5C16.2697 3.94708 17.423 4.6733 18.3748 5.62516C19.3267 6.57702 20.0529 7.73028 20.5 9H16C15.6934 8.64097 15.359 8.3066 15 8V3.5Z" stroke="#868E96" stroke-width="2" stroke-linecap="round" stroke-linejoin="round"/>
</svg>
